<svg width="85" height="85" viewBox="0 0 85 85" fill="none" xmlns="http://www.w3.org/2000/svg">
<ellipse cx="40.1389" cy="45.3333" rx="39.1944" ry="38.7222" fill="url(#paint0_linear_101_259)" fill-opacity="0.15"/>
<path d="M10.3966 18.1865L8.68416 18.6398C7.73853 18.8895 7.17541 19.8599 7.42509 20.8055L16.2474 54.1255C16.3997 54.6975 16.2545 55.3084 15.8613 55.7511L12.8881 59.114C12.4968 59.5567 12.3516 60.1676 12.5021 60.7396L17.2444 78.6533C17.4941 79.599 18.4645 80.1621 19.4101 79.9124L26.2579 78.0991L59.4097 37.2636L10.3966 18.1865Z" fill="url(#paint1_linear_101_259)"/>
<path d="M70.7678 66.3177L26.2597 78.1026L10.3965 18.1865L53.1923 6.8549C54.1379 6.60522 55.1065 7.16834 55.358 8.11397L70.7678 66.3177Z" fill="#2A6DDE"/>
<path d="M67.0207 20.6107L73.4134 62.6273C73.7056 64.5522 72.3704 66.369 70.4455 66.6612L70.9785 70.1622C71.2725 72.0959 69.9443 73.9022 68.0106 74.1961L33.8725 79.39C31.4553 79.7583 29.1975 78.0955 28.8291 75.6783L21.505 27.5347C21.2128 25.6098 22.548 23.7929 24.4729 23.5007L62.9885 17.641C64.9134 17.3488 66.7285 18.684 67.0207 20.6107Z" fill="#ECEFF1"/>
<path d="M70.4455 66.6613L70.7111 68.4126C71.0051 70.3464 69.677 72.1526 67.7432 72.4466L33.6051 77.6404C32.1548 77.8618 30.8001 76.8648 30.5787 75.4145C30.3574 73.9642 31.3544 72.6095 32.8047 72.3881L70.4455 66.6613Z" fill="#BDBDBD"/>
<path d="M35.677 45.0712C35.2484 45.0712 34.8695 44.7578 34.804 44.3186C34.7296 43.8352 35.0625 43.3836 35.5459 43.311L58.3047 39.8473C58.7846 39.7747 59.2397 40.1058 59.3123 40.5892C59.3867 41.0727 59.0538 41.5242 58.5703 41.5968L35.8116 45.0606C35.7673 45.0677 35.723 45.0712 35.677 45.0712Z" fill="#F0AD1C"/>
<path d="M34.6127 38.0694C34.1842 38.0694 33.8052 37.7559 33.7397 37.3168C33.6653 36.8333 33.9982 36.3818 34.4817 36.3092L57.2404 32.8472C57.7203 32.7799 58.1754 33.1057 58.248 33.5892C58.3224 34.0726 57.9895 34.5242 57.5061 34.5968L34.7473 38.0587C34.703 38.0658 34.657 38.0694 34.6127 38.0694Z" fill="#F0AD1C"/>
<path d="M36.743 52.0749C36.3145 52.0749 35.9355 51.7615 35.87 51.3223C35.7956 50.8389 36.1285 50.3873 36.612 50.3147L59.3725 46.851C59.8524 46.7837 60.3075 47.1095 60.3801 47.5929C60.4545 48.0764 60.1216 48.5279 59.6381 48.6005L36.8776 52.0643C36.8333 52.0714 36.7873 52.0749 36.743 52.0749Z" fill="#F0AD1C"/>
<path d="M38.0747 60.8282C37.6462 60.8282 37.2672 60.5147 37.2017 60.0756C37.1273 59.5921 37.4602 59.1405 37.9437 59.0679L39.8225 58.7828C40.6672 58.6536 41.4411 58.2321 42.0024 57.5964L42.4327 57.1112C43.4067 56.0115 44.7507 55.3651 46.2188 55.2925C47.6992 55.2252 49.0857 55.7282 50.1659 56.7234L50.9345 57.4282C51.7544 58.1861 52.8629 58.5208 53.9573 58.3543C55.0588 58.1861 56.0115 57.5379 56.5711 56.5711C56.819 56.1461 57.3555 56.0044 57.7805 56.247C58.2038 56.4914 58.349 57.0333 58.1046 57.4565C57.2758 58.8909 55.8609 59.856 54.2265 60.1057C52.5902 60.3518 50.9522 59.8524 49.7374 58.7315L48.9689 58.0267C48.2428 57.3538 47.2848 57.0102 46.3108 57.0634C45.3227 57.1129 44.4178 57.5468 43.7626 58.287L43.3341 58.7704C42.4965 59.7178 41.3454 60.3447 40.0934 60.5342L38.2146 60.8193C38.165 60.8246 38.119 60.8282 38.0747 60.8282Z" fill="#F0AD1C"/>
<path d="M70.2205 36.051C75.3684 22.8205 77.6945 11.3764 75.4159 10.4898C73.1373 9.60315 67.1169 19.6098 61.9689 32.8403C56.821 46.0707 54.4949 57.5149 56.7735 58.4015C59.0521 59.2881 65.0725 49.2814 70.2205 36.051Z" fill="#424242"/>
<path d="M72.8273 31.7918C72.2482 33.2775 69.762 33.1128 67.0278 32.0485C64.2937 30.9843 62.3475 29.4259 62.9266 27.9384C67.3005 16.6989 73.2027 8.08738 75.9386 9.14988C78.671 10.2159 77.2013 20.5523 72.8273 31.7918Z" fill="#424242"/>
<path d="M70.6562 32.8667C69.6469 32.8667 68.3542 32.5656 67.026 32.0521C65.326 31.3792 63.9271 30.5292 63.2542 29.6083C63.0062 30.2104 62.7583 30.8125 62.5104 31.4323C63.3073 32.1938 64.5469 32.9729 66.3885 33.699C67.4865 34.124 69.1333 34.6375 70.6562 34.6375H70.7448C70.9927 34.0177 71.2229 33.3979 71.4177 32.7958C71.1875 32.849 70.9219 32.8667 70.6562 32.8667Z" fill="#BDBDBD"/>
<defs>
<linearGradient id="paint0_linear_101_259" x1="100.89" y1="-19.8491" x2="-56.1726" y2="119.502" gradientUnits="userSpaceOnUse">
<stop stop-color="#1C4C9F"/>
<stop offset="1" stop-color="#1C4C9F" stop-opacity="0"/>
</linearGradient>
<linearGradient id="paint1_linear_101_259" x1="56.2737" y1="24.5449" x2="13.3745" y2="81.8318" gradientUnits="userSpaceOnUse">
<stop stop-color="#327DE3"/>
<stop offset="1" stop-color="#1A4CD5"/>
</linearGradient>
</defs>
</svg>
